<svg width="24" height="24" viewBox="0 0 24 24" fill="none" xmlns="http://www.w3.org/2000/svg">
<path d="M17.959 20.0372C16.3669 21.6144 14.2531 22.4801 11.9999 22.4801C9.74671 22.4801 7.63286 21.6144 6.0408 20.0372C4.45467 18.4629 3.58008 16.3758 3.58008 14.1552C3.58008 12.8655 3.87062 11.6292 4.44281 10.4789C5.00018 9.3553 5.8303 8.35026 6.83831 7.57646C7.48118 7.08489 8.06426 6.51972 8.57564 5.8925C9.31682 4.98826 9.89791 3.98025 10.3011 2.89813C10.4665 2.45175 10.5867 1.98991 10.6598 1.51953C11.3743 2.1777 11.9732 2.97225 12.4743 3.90317C13.4645 5.75909 13.921 7.41044 13.8321 8.81572C13.8108 9.14669 13.8649 9.47817 13.9902 9.78525C14.1155 10.0923 14.3088 10.367 14.5555 10.5886C14.7693 10.7818 15.0194 10.9305 15.2911 11.0262C15.5629 11.1219 15.851 11.1626 16.1387 11.146C16.7227 11.1163 17.2593 10.8584 17.6507 10.4226C18.045 9.98086 18.3859 9.53022 18.6705 9.07069C19.0856 9.60137 19.4325 10.1795 19.7082 10.8021C20.1796 11.8635 20.4197 12.993 20.4197 14.1552C20.4197 16.3758 19.5451 18.4659 17.959 20.0372Z" stroke="#0A2533" stroke-width="1.5" stroke-linejoin="round"/>
<path d="M13.6454 18.3089C13.0064 18.9419 12.1581 19.2894 11.2538 19.2894C10.3494 19.2894 9.50107 18.9419 8.86211 18.3089C8.22552 17.6771 7.87451 16.8394 7.87451 15.9482C7.87451 15.4306 7.99112 14.9344 8.22077 14.4728C8.44446 14.0218 8.77763 13.6184 9.18218 13.3079C9.44019 13.1106 9.67421 12.8837 9.87945 12.632C10.1769 12.2691 10.4101 11.8645 10.572 11.4302C10.6383 11.2511 10.6866 11.0657 10.7159 10.877C11.0027 11.1411 11.243 11.46 11.4441 11.8336C11.8416 12.5785 12.0248 13.2412 11.9891 13.8052C11.9806 13.9381 12.0023 14.0711 12.0525 14.1943C12.1028 14.3176 12.1804 14.4278 12.2794 14.5168C12.3652 14.5943 12.4656 14.654 12.5747 14.6924C12.6837 14.7308 12.7994 14.7471 12.9148 14.7405C13.1492 14.7286 13.3646 14.6251 13.5217 14.4501C13.6799 14.2729 13.8167 14.092 13.931 13.9076C14.0976 14.1205 14.2368 14.3526 14.3474 14.6024C14.5366 15.0284 14.633 15.4818 14.633 15.9482C14.633 16.8394 14.282 17.6783 13.6454 18.3089Z" stroke="#0A2533" stroke-width="1.5" stroke-linejoin="round"/>
</svg>
