<svg width="25" height="24" viewBox="0 0 25 24" fill="none" xmlns="http://www.w3.org/2000/svg">
<path d="M22.292 11.567C22.292 16.85 17.814 21.133 12.292 21.133C11.6407 21.1337 10.9957 21.0743 10.357 20.955C9.89799 20.868 9.66899 20.825 9.50899 20.85C9.34899 20.874 9.12099 20.995 8.66699 21.236C7.37334 21.925 5.8848 22.1565 4.44299 21.893C4.99374 21.2122 5.3672 20.4054 5.52999 19.545C5.62999 19.015 5.38199 18.5 5.00999 18.123C3.32599 16.411 2.29199 14.105 2.29199 11.567C2.29199 6.284 6.76999 2 12.292 2C17.814 2 22.292 6.284 22.292 11.567Z" fill="black" stroke="black" stroke-width="1.5" stroke-linecap="round" stroke-linejoin="round"/>
<path d="M12.288 12H12.296M16.283 12H16.292M8.29199 12H8.30099" stroke="white" stroke-width="2" stroke-linecap="round" stroke-linejoin="round"/>
</svg>
