<svg width="24" height="24" viewBox="0 0 24 24" fill="none" xmlns="http://www.w3.org/2000/svg">
<path d="M17.0984 6.98921C13.454 3.49251 10.5414 3.25532 9.87559 3.25049L3.07831 19.7952C2.94823 20.1118 3.07879 20.3916 3.24463 20.5482C3.41047 20.7048 3.70447 20.8257 4.03183 20.6958L21.0332 13.9621C21.0183 13.3171 20.7334 10.4769 17.0984 6.98921Z" stroke="#0A2533" stroke-width="1.5" stroke-linejoin="round"/>
<path d="M17.1781 15.0986C17.0732 14.7304 16.8491 14.3885 16.6292 14.0552C16.418 13.7349 16.2183 13.4326 16.1334 13.1268C16.0503 12.8288 16.0664 12.4763 16.0835 12.1032C16.1082 11.56 16.1336 10.9984 15.8499 10.5277C15.5785 10.077 15.0702 9.82166 14.5789 9.57435C14.2386 9.40302 13.8865 9.22594 13.6446 8.99406C13.4029 8.76194 13.2183 8.42436 13.0398 8.0976C12.782 7.626 12.5156 7.13828 12.0462 6.87807C11.5559 6.60612 10.9707 6.63053 10.4041 6.65401C10.0151 6.67013 9.64787 6.68556 9.33731 6.60612C9.01859 6.5246 8.70323 6.33301 8.36963 6.13037" stroke="#0A2533" stroke-width="1.5"/>
<path d="M11.0001 9.5C11.0001 9.77614 10.7763 10 10.5001 10C10.224 10 10.0001 9.77614 10.0001 9.5C10.0001 9.22386 10.224 9 10.5001 9C10.7763 9 11.0001 9.22386 11.0001 9.5Z" stroke="#0A2533" stroke-width="1.5"/>
<path d="M14.3322 14.3248C14.3322 14.6009 14.1084 14.8248 13.8322 14.8248C13.5561 14.8248 13.3322 14.6009 13.3322 14.3248C13.3322 14.0486 13.5561 13.8248 13.8322 13.8248C14.1084 13.8248 14.3322 14.0486 14.3322 14.3248Z" stroke="#0A2533" stroke-width="1.5"/>
<path d="M11.2946 14.5983C11.2946 14.8745 11.0708 15.0983 10.7946 15.0983C10.5185 15.0983 10.2946 14.8745 10.2946 14.5983C10.2946 14.3222 10.5185 14.0983 10.7946 14.0983C11.0708 14.0983 11.2946 14.3222 11.2946 14.5983Z" stroke="#0A2533" stroke-width="1.5"/>
<path d="M7.37012 17.0854C7.37012 17.3615 7.14626 17.5854 6.87012 17.5854C6.59397 17.5854 6.37012 17.3615 6.37012 17.0854C6.37012 16.8092 6.59397 16.5854 6.87012 16.5854C7.14626 16.5854 7.37012 16.8092 7.37012 17.0854Z" stroke="#0A2533" stroke-width="1.5"/>
<path d="M8.37012 12.9752C8.37012 13.2514 8.14626 13.4752 7.87012 13.4752C7.59397 13.4752 7.37012 13.2514 7.37012 12.9752C7.37012 12.6991 7.59397 12.4752 7.87012 12.4752C8.14626 12.4752 8.37012 12.6991 8.37012 12.9752Z" stroke="#0A2533" stroke-width="1.5"/>
</svg>
