<svg width="18" height="18" viewBox="0 0 18 18" fill="none" xmlns="http://www.w3.org/2000/svg">
<path d="M12.997 2.5537C12.5777 2.413 12.1367 2.3507 11.695 2.3507C10.722 2.3437 9.77771 2.6657 9.00001 3.26C8.93701 3.2117 8.86001 3.169 8.79001 3.1277C8.72001 3.085 8.59401 2.9807 8.48901 2.9247L8.22301 2.8057C8.08301 2.7287 7.93671 2.6727 7.78201 2.623C7.76801 2.6097 7.74701 2.595 7.71901 2.5817H7.67771C7.26401 2.441 6.83701 2.364 6.39601 2.3507H6.31901C6.12301 2.3507 5.92771 2.364 5.73101 2.3927H5.64701C5.43701 2.42 5.22771 2.469 5.02471 2.539C2.41301 3.3937 1.48201 6.2287 2.27301 8.7067C2.72101 9.973 3.44271 11.1217 4.38071 12.066C5.74501 13.382 7.23671 14.544 8.83901 15.538L9.02101 15.6507L9.19601 15.545C10.7927 14.544 12.276 13.382 13.6277 12.073C14.572 11.1287 15.293 9.973 15.734 8.7067C16.5117 6.2287 15.5807 3.3937 12.997 2.5537Z" fill="#70B9BE"/>
<path d="M14.1099 6.85775C14.0889 7.15245 13.8439 7.38275 13.5569 7.39045C13.4029 7.37575 13.2559 7.30645 13.1579 7.18745C13.0599 7.06845 13.0116 6.91375 13.0249 6.75345V6.73175C13.0249 6.24245 12.7246 5.80075 12.2759 5.63275C11.9819 5.52845 11.8279 5.20645 11.9259 4.91245C12.0309 4.61845 12.3459 4.46375 12.6329 4.56245C13.5366 4.90545 14.1309 5.79375 14.1099 6.77445V6.85775Z" fill="#C6E3E5"/>
</svg>
