<svg width="19" height="24" viewBox="0 0 19 24" fill="none" xmlns="http://www.w3.org/2000/svg">
<path d="M11.3384 8.80371L4.21338 21.1446" stroke="#0A2533" stroke-width="1.5" stroke-linecap="round" stroke-linejoin="round"/>
<path d="M9.56634 18.8944C8.22436 19.2539 6.081 18.1811 6.081 18.1811C6.081 18.1811 7.42856 15.7833 8.93028 15.496C10.2564 15.2424 12.2281 16.534 12.2281 16.534C12.2281 16.534 10.9083 18.5348 9.56634 18.8944Z" stroke="#0A2533" stroke-width="1.5" stroke-linecap="round" stroke-linejoin="round"/>
<path d="M12.5678 13.6956C11.2258 14.0552 9.08246 12.9824 9.08246 12.9824C9.08246 12.9824 10.43 10.5846 11.9317 10.2973C13.2579 10.0436 15.2296 11.3353 15.2296 11.3353C15.2296 11.3353 13.9098 13.336 12.5678 13.6956Z" stroke="#0A2533" stroke-width="1.5" stroke-linecap="round" stroke-linejoin="round"/>
<path d="M14.3068 6.84352C13.6122 8.0467 11.338 8.8037 11.338 8.8037C11.338 8.8037 10.5953 6.15531 11.4541 4.8903C12.2124 3.77321 14.52 3.29234 14.52 3.29234C14.52 3.29234 15.0015 5.64033 14.3068 6.84352Z" stroke="#0A2533" stroke-width="1.5" stroke-linecap="round" stroke-linejoin="round"/>
<path d="M3.39581 15.3318C3.75539 16.6737 5.75614 17.9936 5.75614 17.9936C5.75614 17.9936 7.15894 15.6276 6.65686 14.1835C6.21349 12.9082 4.10903 11.8464 4.10903 11.8464C4.10903 11.8464 3.03622 13.9898 3.39581 15.3318Z" stroke="#0A2533" stroke-width="1.5" stroke-linecap="round" stroke-linejoin="round"/>
<path d="M6.39727 10.133C6.75685 11.475 8.75761 12.7948 8.75761 12.7948C8.75761 12.7948 10.1604 10.4289 9.65833 8.98472C9.21496 7.70943 7.11049 6.64771 7.11049 6.64771C7.11049 6.64771 6.03769 8.79107 6.39727 10.133Z" stroke="#0A2533" stroke-width="1.5" stroke-linecap="round" stroke-linejoin="round"/>
</svg>
