<svg width="312" height="311" viewBox="0 0 312 311" fill="none" xmlns="http://www.w3.org/2000/svg">
<path d="M11.9475 304.922C8.83269 308.037 3.60051 307.855 3.60051 307.855C3.60051 307.855 3.41843 302.623 6.53324 299.508C9.64804 296.393 14.8802 296.575 14.8802 296.575C14.8802 296.575 15.0623 301.807 11.9475 304.922Z" fill="#FFF1CE"/>
<circle cx="63" cy="186" r="4" fill="#FFF1CE"/>
<circle cx="221" cy="196" r="4" fill="#FFF1CE"/>
<circle cx="308" cy="162" r="4" fill="#FFF1CE"/>
<circle cx="235.5" cy="3.5" r="3.5" fill="#FFF1CE"/>
<circle cx="58.5" cy="104.5" r="3.5" fill="#FFF1CE"/>
<circle cx="160" cy="45" r="3" fill="#FFF1CE"/>
<path d="M264.322 183.432C265.236 187.542 268.159 191.104 271.903 193.205C275.466 195.215 279.302 195.58 283.321 195.397C283.504 195.397 283.686 195.397 283.778 195.397C283.778 195.215 283.778 195.032 283.778 194.849C283.412 189.552 281.586 184.345 278.663 179.961C275.74 175.759 271.812 172.288 267.976 169C265.053 173.202 263.226 178.773 264.322 183.432Z" fill="#AEDC90"/>
<path d="M264.322 183.432C265.236 187.542 268.159 191.104 271.903 193.205C275.466 195.215 279.302 195.58 283.321 195.397C283.504 195.397 283.686 195.397 283.778 195.397C266.24 185.624 267.885 169 267.885 169C265.053 173.202 263.226 178.773 264.322 183.432Z" fill="#7CA661"/>
<path d="M268.707 177.403C269.529 181.514 271.995 185.533 274.644 188.638C277.018 191.378 279.941 193.845 283.23 195.489C283.412 195.489 283.595 195.489 283.686 195.489C283.686 195.306 283.686 195.123 283.686 194.941C280.398 193.114 277.475 191.013 275.009 188.09C273.639 186.446 272.451 184.71 271.447 182.792C270.533 181.057 269.894 179.139 269.255 177.312C269.163 176.855 268.615 177.038 268.707 177.403Z" fill="#39700B"/>
</svg>
