<svg xmlns="http://www.w3.org/2000/svg" width="24" height="24" fill="none" viewBox="0 0 24 24">
  <g clip-path="url(#a)">
    <path fill="#fff" d="M18.375 0H5.625A5.625 5.625 0 0 0 0 5.625v12.75A5.625 5.625 0 0 0 5.625 24h12.75A5.625 5.625 0 0 0 24 18.375V5.625A5.625 5.625 0 0 0 18.375 0Z"/>
    <path fill="#0A66C2" d="M18.375 0H5.625A5.625 5.625 0 0 0 0 5.625v12.75A5.625 5.625 0 0 0 5.625 24h12.75A5.625 5.625 0 0 0 24 18.375V5.625A5.625 5.625 0 0 0 18.375 0Z"/>
    <path fill="#fff" d="M17.317 20.408h2.744a.375.375 0 0 0 .375-.375l.002-5.798c0-3.03-.653-5.36-4.195-5.36a3.68 3.68 0 0 0-3.3 1.803.03.03 0 0 1-.015.013.03.03 0 0 1-.035-.01.03.03 0 0 1-.006-.018V9.531a.375.375 0 0 0-.375-.375H9.908a.375.375 0 0 0-.375.375v10.501a.375.375 0 0 0 .375.375h2.744a.375.375 0 0 0 .375-.375v-5.19c0-1.469.278-2.89 2.098-2.89 1.794 0 1.817 1.68 1.817 2.984v5.097a.375.375 0 0 0 .375.375ZM3.562 5.59c0 1.112.916 2.028 2.028 2.028A2.038 2.038 0 0 0 7.618 5.59 2.037 2.037 0 0 0 5.59 3.563 2.037 2.037 0 0 0 3.563 5.59Zm.653 14.818h2.747a.375.375 0 0 0 .375-.375V9.531a.375.375 0 0 0-.375-.375H4.215a.375.375 0 0 0-.375.375v10.502a.375.375 0 0 0 .375.375Z"/>
  </g>
  <defs>
    <clipPath id="a">
      <path fill="#fff" d="M0 0h24v24H0z"/>
    </clipPath>
  </defs>
</svg>
