<svg xmlns="http://www.w3.org/2000/svg" width="20" height="20" fill="none" viewBox="0 0 20 20">
  <path stroke="#000" stroke-linecap="round" stroke-linejoin="round" d="M5 8.333V6.667c0-2.759.833-5 5-5s5 2.241 5 5v1.666m-5 7.084a2.083 2.083 0 1 0 0-4.167 2.083 2.083 0 0 0 0 4.167Z"/>
  <path stroke="#000" stroke-linecap="round" stroke-linejoin="round" d="M14.166 18.333H5.833c-3.333 0-4.167-.833-4.167-4.166V12.5c0-3.333.834-4.167 4.167-4.167h8.334c3.333 0 4.166.834 4.166 4.167v1.667c0 3.333-.833 4.166-4.166 4.166Z"/>
</svg>
