<svg width="93" height="93" viewBox="0 0 93 93" fill="none" xmlns="http://www.w3.org/2000/svg">
<path d="M82.7818 11.9627C83.7844 11.9627 84.5971 11.1499 84.5971 10.1473C84.5971 9.14469 83.7844 8.33191 82.7818 8.33191C81.7791 8.33191 80.9664 9.14469 80.9664 10.1473C80.9664 11.1499 81.7791 11.9627 82.7818 11.9627Z" fill="#FFA800"/>
<path d="M66.4433 31.932C67.4459 31.932 68.2586 31.1192 68.2586 30.1166C68.2586 29.114 67.4459 28.3012 66.4433 28.3012C65.4406 28.3012 64.6279 29.114 64.6279 30.1166C64.6279 31.1192 65.4406 31.932 66.4433 31.932Z" fill="#FFA800"/>
<path d="M64.6279 6.55427C65.6305 6.55427 66.4433 5.74149 66.4433 4.73888C66.4433 3.73627 65.6305 2.92349 64.6279 2.92349C63.6253 2.92349 62.8125 3.73627 62.8125 4.73888C62.8125 5.74149 63.6253 6.55427 64.6279 6.55427Z" fill="#FFA800"/>
<path d="M28.3201 6.55427C29.3227 6.55427 30.1355 5.74149 30.1355 4.73888C30.1355 3.73627 29.3227 2.92349 28.3201 2.92349C27.3175 2.92349 26.5047 3.73627 26.5047 4.73888C26.5047 5.74149 27.3175 6.55427 28.3201 6.55427Z" fill="#FFA800"/>
<path d="M26.5047 31.932C27.5073 31.932 28.3201 31.1192 28.3201 30.1166C28.3201 29.114 27.5073 28.3012 26.5047 28.3012C25.5021 28.3012 24.6893 29.114 24.6893 30.1166C24.6893 31.1192 25.5021 31.932 26.5047 31.932Z" fill="#FFA800"/>
<path d="M10.1662 11.9627C11.1688 11.9627 11.9815 11.1499 11.9815 10.1473C11.9815 9.14469 11.1688 8.33191 10.1662 8.33191C9.16355 8.33191 8.35077 9.14469 8.35077 10.1473C8.35077 11.1499 9.16355 11.9627 10.1662 11.9627Z" fill="#FFA800"/>
<path d="M75.5202 89.1545H17.4277C15.6392 89.1592 13.8674 88.8093 12.2149 88.125C10.5625 87.4407 9.06201 86.4357 7.80035 85.1679C6.53211 83.9063 5.52664 82.4056 4.8421 80.7529C4.15756 79.1001 3.80755 77.328 3.8123 75.5391C3.8123 75.2984 3.90794 75.0675 4.07816 74.8973C4.24839 74.727 4.47926 74.6314 4.72 74.6314H88.2279C88.729 74.6314 89.1356 75.0381 89.1356 75.5391C89.1356 83.0461 83.0272 89.1545 75.5202 89.1545ZM5.66255 76.4468C5.87229 79.2565 7.08696 81.8967 9.0842 83.8841C10.1775 84.9829 11.4779 85.854 12.91 86.447C14.3422 87.0401 15.8777 87.3433 17.4277 87.3391H75.5202C81.7216 87.3391 86.8206 82.5305 87.2854 76.4468H5.66255Z" fill="#FFA800"/>
<path d="M84.5972 76.4468C84.3564 76.4468 84.1256 76.3512 83.9553 76.1809C83.7851 76.0107 83.6895 75.7798 83.6895 75.5391C83.6895 55.0179 66.9952 38.3236 46.474 38.3236C25.9528 38.3236 9.2585 55.0179 9.2585 75.5391C9.2585 75.7798 9.16287 76.0107 8.99265 76.1809C8.82242 76.3512 8.59155 76.4468 8.35081 76.4468C8.11007 76.4468 7.8792 76.3512 7.70897 76.1809C7.53875 76.0107 7.44312 75.7798 7.44312 75.5391C7.44312 65.113 11.5023 55.3128 18.8743 47.9408C26.2462 40.5689 36.0478 36.5097 46.4725 36.5097C56.8972 36.5097 66.6989 40.5703 74.0708 47.9408C81.4428 55.3128 85.502 65.1144 85.502 75.5391C85.5025 75.6582 85.4796 75.7763 85.4343 75.8865C85.3891 75.9967 85.3225 76.0968 85.2384 76.1812C85.1543 76.2656 85.0544 76.3325 84.9443 76.378C84.8343 76.4236 84.7163 76.447 84.5972 76.4468Z" fill="#FFA800"/>
<path d="M17.4277 76.4468C17.187 76.4468 16.9561 76.3512 16.7859 76.1809C16.6157 76.0107 16.52 75.7798 16.52 75.5391C16.52 64.8995 22.2581 54.9613 31.4948 49.6052C31.7026 49.4909 31.9469 49.4625 32.1754 49.526C32.4039 49.5895 32.5984 49.7399 32.7174 49.9451C32.8364 50.1502 32.8704 50.3938 32.8121 50.6237C32.7538 50.8536 32.6078 51.0515 32.4054 51.1751C23.7264 56.2074 18.3354 65.5428 18.3354 75.5377C18.3354 76.0402 17.9288 76.4468 17.4277 76.4468ZM57.3663 49.5195C57.2493 49.5192 57.1335 49.4966 57.025 49.4527C53.6741 48.0918 50.0907 47.3949 46.474 47.4006C46.2332 47.4006 46.0024 47.3049 45.8321 47.1347C45.6619 46.9645 45.5663 46.7336 45.5663 46.4929C45.5663 46.2521 45.6619 46.0213 45.8321 45.851C46.0024 45.6808 46.2332 45.5852 46.474 45.5852C50.3531 45.5852 54.132 46.32 57.7076 47.7709C57.9026 47.8502 58.064 47.9947 58.1641 48.1798C58.2643 48.3649 58.297 48.5791 58.2567 48.7857C58.2164 48.9922 58.1055 49.1784 57.9431 49.3123C57.7807 49.4461 57.5768 49.5194 57.3663 49.5195ZM67.6458 23.7627C67.4124 23.7626 67.1881 23.6726 67.0193 23.5114C66.8505 23.3503 66.7504 23.1303 66.7395 22.8972L66.3576 14.6916C66.3296 14.1186 66.4154 13.5456 66.61 13.006C66.8047 12.4663 67.1044 11.9705 67.4918 11.5473C67.9001 11.0969 68.3985 10.7371 68.9546 10.4915C69.5108 10.2458 70.1123 10.1196 70.7203 10.1212C71.8438 10.1197 72.9244 10.5521 73.7368 11.3282C74.5491 12.1043 75.0304 13.164 75.0802 14.2864L75.099 14.6756L75.4883 14.6582C76.061 14.6302 76.6335 14.7158 77.173 14.9103C77.7124 15.1047 78.2079 15.404 78.6311 15.791C79.0819 16.1994 79.4418 16.6979 79.6875 17.2544C79.9332 17.8108 80.0592 18.4127 80.0572 19.0209C80.058 20.144 79.6256 21.224 78.8499 22.0361C78.0743 22.8483 77.0153 23.3299 75.8934 23.3808L67.6879 23.7613L67.6458 23.7627ZM70.7218 11.9366L70.5925 11.9395C70.2592 11.955 69.9324 12.0364 69.6307 12.179C69.3291 12.3216 69.0587 12.5225 68.8352 12.7702C68.6088 13.0174 68.4337 13.3071 68.32 13.6224C68.2063 13.9378 68.1564 14.2726 68.173 14.6074L68.5128 21.9067L75.8107 21.5668C76.4659 21.5373 77.0845 21.2561 77.5377 20.7819C77.9908 20.3076 78.2436 19.6769 78.2433 19.0209L78.2404 18.8888C78.2243 18.556 78.1428 18.2296 78.0005 17.9283C77.8582 17.627 77.6579 17.3568 77.4111 17.1329C77.1637 16.9069 76.874 16.732 76.5587 16.6183C76.2434 16.5046 75.9087 16.4545 75.5739 16.4707L74.2785 16.5302C74.0384 16.5405 73.8039 16.4554 73.6263 16.2935C73.4486 16.1317 73.3422 15.9061 73.3301 15.6661L73.2677 14.3706C73.2388 13.715 72.9579 13.0958 72.4836 12.6423C72.0092 12.1887 71.378 11.9359 70.7218 11.9366ZM82.484 40.139L82.4419 40.1375L76.1171 39.8442C75.172 39.8009 74.2826 39.3842 73.6444 38.6858C73.0061 37.9874 72.6711 37.0642 72.7129 36.119C72.7341 35.6494 72.8477 35.1885 73.0471 34.7627C73.2465 34.337 73.5277 33.9546 73.8749 33.6376C74.222 33.3205 74.6282 33.0749 75.0702 32.9149C75.5122 32.7548 75.9815 32.6833 76.4511 32.7046L76.5412 32.709L76.5455 32.6175C76.5668 32.1492 76.6801 31.6896 76.879 31.2651C77.0778 30.8406 77.3583 30.4594 77.7045 30.1432C78.0507 29.8271 78.4558 29.5823 78.8966 29.4227C79.3374 29.2632 79.8053 29.192 80.2736 29.2133C81.2351 29.2568 82.1152 29.6693 82.7571 30.3751C83.4005 31.0809 83.7301 31.9959 83.6851 32.9501L83.3903 39.2749C83.3791 39.5077 83.2787 39.7274 83.11 39.8882C82.9413 40.0491 82.7172 40.1389 82.484 40.139ZM76.2812 34.5157C75.3488 34.5157 74.5704 35.252 74.5254 36.1931L74.5225 36.2744C74.5225 37.2155 75.2602 37.9867 76.2013 38.0317L81.6185 38.2829L81.8697 32.8644C81.881 32.6335 81.8464 32.4027 81.7679 32.1853C81.6894 31.9679 81.5685 31.7683 81.4122 31.598C81.2574 31.4272 81.0703 31.2888 80.8616 31.1908C80.653 31.0928 80.4269 31.0372 80.1967 31.0272L80.111 31.0243C79.1713 31.0243 78.4001 31.7606 78.3566 32.7003L78.3116 33.6995C78.3065 33.8188 78.2779 33.936 78.2274 34.0443C78.1768 34.1525 78.1053 34.2497 78.017 34.3301C77.9287 34.4106 77.8253 34.4728 77.7129 34.5131C77.6004 34.5534 77.4811 34.5711 77.3617 34.565L76.364 34.5171L76.2812 34.5157ZM25.3022 23.7627L25.26 23.7613L17.0545 23.3808C16.4823 23.3549 15.9209 23.2165 15.4022 22.9736C14.8835 22.7307 14.4177 22.388 14.0315 21.965C13.6452 21.5421 13.3461 21.0472 13.1511 20.5087C12.9561 19.9702 12.8691 19.3985 12.8951 18.8263C12.9191 18.2514 13.0572 17.687 13.3013 17.1659C13.5454 16.6449 13.8906 16.1775 14.3169 15.791C14.7397 15.4032 15.2355 15.1033 15.7752 14.9088C16.315 14.7144 16.8881 14.6292 17.4611 14.6582L17.8504 14.6756L17.8692 14.2849C17.8948 13.7127 18.0329 13.1511 18.2757 12.6324C18.5185 12.1136 18.8612 11.6477 19.2843 11.2615C19.7073 10.8753 20.2023 10.5764 20.741 10.3817C21.2797 10.187 21.8515 10.1004 22.4237 10.127C22.9985 10.1513 23.5629 10.2895 24.0839 10.5335C24.6049 10.7776 25.0724 11.1227 25.459 11.5488C25.8464 11.972 26.1461 12.4677 26.3408 13.0074C26.5355 13.5471 26.6213 14.12 26.5933 14.693L26.2113 22.8986C26.1991 23.1316 26.098 23.351 25.9289 23.5118C25.7598 23.6725 25.5355 23.7623 25.3022 23.7627ZM17.2535 16.4678C16.6173 16.4678 16.0117 16.7016 15.5383 17.1329C15.2748 17.3714 15.0645 17.6626 14.9209 17.9876C14.7772 18.3126 14.7036 18.6642 14.7046 19.0195C14.7046 20.3832 15.7735 21.5015 17.1387 21.5654L24.4366 21.9038L24.7764 14.6045C24.793 14.2696 24.743 13.9349 24.6294 13.6195C24.5157 13.3042 24.3406 13.0145 24.1142 12.7673C23.8757 12.5038 23.5845 12.2935 23.2595 12.1499C22.9345 12.0063 22.5829 11.9326 22.2276 11.9337C20.8624 11.9337 19.7442 13.0026 19.6817 14.3663L19.6193 15.6646C19.6072 15.9047 19.5008 16.1302 19.3231 16.2921C19.1455 16.454 18.911 16.539 18.6709 16.5288L17.3769 16.4692L17.2535 16.4678ZM10.4639 40.139C10.2305 40.1389 10.0062 40.0489 9.83743 39.8877C9.66867 39.7265 9.56848 39.5065 9.55765 39.2734L9.26283 32.9486C9.23943 32.4796 9.30941 32.0106 9.46872 31.5688C9.62803 31.127 9.87349 30.7213 10.1909 30.3751C10.5249 30.0061 10.9329 29.7115 11.3883 29.5105C11.8437 29.3096 12.3363 29.2068 12.8341 29.2089C13.7532 29.208 14.6372 29.5617 15.3019 30.1964C15.9667 30.8311 16.3609 31.6979 16.4024 32.616L16.4068 32.709L16.4968 32.7046C17.4248 32.6915 18.3215 33.0398 18.9975 33.6758C19.6734 34.3118 20.0756 35.1857 20.1189 36.1128C20.1623 37.0398 19.8435 37.9475 19.2299 38.6438C18.6163 39.3401 17.756 39.7706 16.8308 39.8442L10.506 40.1375L10.4639 40.139ZM12.8341 31.0243L12.7513 31.0272C12.5203 31.0367 12.2934 31.0921 12.084 31.1901C11.8746 31.2881 11.6867 31.4267 11.5313 31.598C11.2147 31.9451 11.0521 32.3953 11.0739 32.8644L11.328 38.2829L16.7466 38.0317C17.2127 38.0097 17.6509 37.8035 17.9649 37.4585C18.279 37.1134 18.4431 36.6577 18.4211 36.1916C18.3992 35.7256 18.193 35.2873 17.8479 34.9733C17.5028 34.6592 17.0471 34.4951 16.581 34.5171L15.5847 34.565C15.4654 34.5713 15.346 34.5538 15.2334 34.5135C15.1209 34.4733 15.0174 34.4111 14.9291 34.3306C14.8407 34.2501 14.7692 34.1528 14.7187 34.0445C14.6683 33.9362 14.6398 33.8189 14.6349 33.6995L14.5899 32.6988C14.569 32.2474 14.3748 31.8214 14.0477 31.5095C13.7207 31.1976 13.286 31.0238 12.8341 31.0243ZM46.474 38.3236C42.971 38.3236 40.1201 35.4727 40.1201 31.9697C40.1201 28.4668 42.971 25.6159 46.474 25.6159C49.9769 25.6159 52.8278 28.4668 52.8278 31.9697C52.8278 35.4727 49.9769 38.3236 46.474 38.3236ZM46.474 27.4313C45.2708 27.4328 44.1173 27.9115 43.2665 28.7623C42.4157 29.6131 41.937 30.7665 41.9355 31.9697C41.937 33.173 42.4157 34.3264 43.2665 35.1772C44.1173 36.028 45.2708 36.5067 46.474 36.5082C47.6772 36.5067 48.8307 36.028 49.6815 35.1772C50.5322 34.3264 51.0109 33.173 51.0124 31.9697C51.0109 30.7665 50.5322 29.6131 49.6815 28.7623C48.8307 27.9115 47.6772 27.4328 46.474 27.4313Z" fill="#FFA800"/>
</svg>
