<svg width="261px" height="152px" viewBox="0 0 261 152" fill="none" xmlns="http://www.w3.org/2000/svg" transform="rotate(0) scale(1, 1)">
<path d="M165.782 11.9627C166.784 11.9627 167.597 11.1499 167.597 10.1473C167.597 9.14469 166.784 8.33191 165.782 8.33191C164.779 8.33191 163.966 9.14469 163.966 10.1473C163.966 11.1499 164.779 11.9627 165.782 11.9627Z" fill="#70b9be"/>
<path d="M149.443 31.932C150.446 31.932 151.259 31.1192 151.259 30.1166C151.259 29.114 150.446 28.3012 149.443 28.3012C148.441 28.3012 147.628 29.114 147.628 30.1166C147.628 31.1192 148.441 31.932 149.443 31.932Z" fill="#70b9be"/>
<path d="M147.628 6.55427C148.631 6.55427 149.443 5.74149 149.443 4.73888C149.443 3.73627 148.631 2.92349 147.628 2.92349C146.625 2.92349 145.812 3.73627 145.812 4.73888C145.812 5.74149 146.625 6.55427 147.628 6.55427Z" fill="#70b9be"/>
<path d="M111.32 6.55427C112.323 6.55427 113.135 5.74149 113.135 4.73888C113.135 3.73627 112.323 2.92349 111.32 2.92349C110.317 2.92349 109.505 3.73627 109.505 4.73888C109.505 5.74149 110.317 6.55427 111.32 6.55427Z" fill="#70b9be"/>
<path d="M109.505 31.932C110.507 31.932 111.32 31.1192 111.32 30.1166C111.32 29.114 110.507 28.3012 109.505 28.3012C108.502 28.3012 107.689 29.114 107.689 30.1166C107.689 31.1192 108.502 31.932 109.505 31.932Z" fill="#70b9be"/>
<path d="M93.1662 11.9627C94.1688 11.9627 94.9815 11.1499 94.9815 10.1473C94.9815 9.14469 94.1688 8.33191 93.1662 8.33191C92.1635 8.33191 91.3508 9.14469 91.3508 10.1473C91.3508 11.1499 92.1635 11.9627 93.1662 11.9627Z" fill="#70b9be"/>
<path d="M158.52 89.1545H100.428C98.6392 89.1592 96.8674 88.8093 95.2149 88.125C93.5625 87.4407 92.062 86.4357 90.8004 85.1679C89.5321 83.9063 88.5266 82.4056 87.8421 80.7529C87.1576 79.1001 86.8075 77.328 86.8123 75.5391C86.8123 75.2984 86.9079 75.0675 87.0782 74.8973C87.2484 74.727 87.4793 74.6314 87.72 74.6314H171.228C171.729 74.6314 172.136 75.0381 172.136 75.5391C172.136 83.0461 166.027 89.1545 158.52 89.1545ZM88.6625 76.4468C88.8723 79.2565 90.087 81.8967 92.0842 83.8841C93.1775 84.9829 94.4779 85.854 95.91 86.447C97.3422 87.0401 98.8777 87.3433 100.428 87.3391H158.52C164.722 87.3391 169.821 82.5305 170.285 76.4468H88.6625Z" fill="#70b9be"/>
<path d="M167.597 76.4468C167.356 76.4468 167.126 76.3512 166.955 76.1809C166.785 76.0107 166.689 75.7798 166.689 75.5391C166.689 55.0179 149.995 38.3236 129.474 38.3236C108.953 38.3236 92.2585 55.0179 92.2585 75.5391C92.2585 75.7798 92.1629 76.0107 91.9926 76.1809C91.8224 76.3512 91.5915 76.4468 91.3508 76.4468C91.1101 76.4468 90.8792 76.3512 90.709 76.1809C90.5387 76.0107 90.4431 75.7798 90.4431 75.5391C90.4431 65.113 94.5023 55.3128 101.874 47.9408C109.246 40.5689 119.048 36.5097 129.473 36.5097C139.897 36.5097 149.699 40.5703 157.071 47.9408C164.443 55.3128 168.502 65.1144 168.502 75.5391C168.503 75.6582 168.48 75.7763 168.434 75.8865C168.389 75.9967 168.323 76.0968 168.238 76.1812C168.154 76.2656 168.054 76.3325 167.944 76.378C167.834 76.4236 167.716 76.447 167.597 76.4468Z" fill="#70b9be"/>
<path d="M100.428 76.4468C100.187 76.4468 99.9561 76.3512 99.7859 76.1809C99.6157 76.0107 99.52 75.7798 99.52 75.5391C99.52 64.8995 105.258 54.9613 114.495 49.6052C114.703 49.4909 114.947 49.4625 115.175 49.526C115.404 49.5895 115.598 49.7399 115.717 49.9451C115.836 50.1502 115.87 50.3938 115.812 50.6237C115.754 50.8536 115.608 51.0515 115.405 51.1751C106.726 56.2074 101.335 65.5428 101.335 75.5377C101.335 76.0402 100.929 76.4468 100.428 76.4468ZM140.366 49.5195C140.249 49.5192 140.133 49.4966 140.025 49.4527C136.674 48.0918 133.091 47.3949 129.474 47.4006C129.233 47.4006 129.002 47.3049 128.832 47.1347C128.662 46.9645 128.566 46.7336 128.566 46.4929C128.566 46.2521 128.662 46.0213 128.832 45.851C129.002 45.6808 129.233 45.5852 129.474 45.5852C133.353 45.5852 137.132 46.32 140.708 47.7709C140.903 47.8502 141.064 47.9947 141.164 48.1798C141.264 48.3649 141.297 48.5791 141.257 48.7857C141.216 48.9923 141.106 49.1784 140.943 49.3123C140.781 49.4461 140.577 49.5194 140.366 49.5195ZM150.646 23.7627C150.412 23.7626 150.188 23.6726 150.019 23.5114C149.851 23.3503 149.75 23.1303 149.74 22.8972L149.358 14.6916C149.33 14.1186 149.415 13.5456 149.61 13.006C149.805 12.4663 150.104 11.9705 150.492 11.5473C150.9 11.0969 151.398 10.7371 151.955 10.4915C152.511 10.2458 153.112 10.1196 153.72 10.1212C154.844 10.1197 155.924 10.5521 156.737 11.3282C157.549 12.1043 158.03 13.164 158.08 14.2864L158.099 14.6756L158.488 14.6582C159.061 14.6302 159.634 14.7158 160.173 14.9103C160.712 15.1047 161.208 15.404 161.631 15.791C162.082 16.1994 162.442 16.6979 162.687 17.2544C162.933 17.8108 163.059 18.4127 163.057 19.0209C163.058 20.144 162.626 21.224 161.85 22.0361C161.074 22.8483 160.015 23.3299 158.893 23.3808L150.688 23.7613L150.646 23.7627ZM153.722 11.9366L153.593 11.9395C153.259 11.955 152.932 12.0364 152.631 12.179C152.329 12.3216 152.059 12.5225 151.835 12.7702C151.609 13.0174 151.434 13.3071 151.32 13.6224C151.206 13.9378 151.156 14.2726 151.173 14.6074L151.513 21.9067L158.811 21.5668C159.466 21.5373 160.085 21.2561 160.538 20.7819C160.991 20.3076 161.244 19.6769 161.243 19.0209L161.24 18.8888C161.224 18.556 161.143 18.2296 161 17.9283C160.858 17.627 160.658 17.3568 160.411 17.1329C160.164 16.9069 159.874 16.732 159.559 16.6183C159.243 16.5046 158.909 16.4545 158.574 16.4707L157.278 16.5302C157.038 16.5405 156.804 16.4554 156.626 16.2935C156.449 16.1317 156.342 15.9061 156.33 15.6661L156.268 14.3706C156.239 13.715 155.958 13.0958 155.484 12.6423C155.009 12.1887 154.378 11.9359 153.722 11.9366ZM165.484 40.139L165.442 40.1375L159.117 39.8442C158.172 39.8009 157.283 39.3842 156.644 38.6858C156.006 37.9874 155.671 37.0642 155.713 36.119C155.734 35.6494 155.848 35.1885 156.047 34.7627C156.246 34.337 156.528 33.9546 156.875 33.6376C157.222 33.3205 157.628 33.0749 158.07 32.9149C158.512 32.7548 158.981 32.6833 159.451 32.7046L159.541 32.709L159.546 32.6175C159.567 32.1492 159.68 31.6896 159.879 31.2651C160.078 30.8406 160.358 30.4594 160.705 30.1432C161.051 29.8271 161.456 29.5823 161.897 29.4227C162.337 29.2632 162.805 29.192 163.274 29.2133C164.235 29.2568 165.115 29.6693 165.757 30.3751C166.4 31.0809 166.73 31.9959 166.685 32.9501L166.39 39.2749C166.379 39.5077 166.279 39.7274 166.11 39.8882C165.941 40.0491 165.717 40.1389 165.484 40.139ZM159.281 34.5157C158.349 34.5157 157.57 35.252 157.525 36.1931L157.522 36.2744C157.522 37.2155 158.26 37.9867 159.201 38.0317L164.618 38.2829L164.87 32.8644C164.881 32.6335 164.846 32.4027 164.768 32.1853C164.689 31.9679 164.568 31.7683 164.412 31.598C164.257 31.4272 164.07 31.2888 163.862 31.1908C163.653 31.0928 163.427 31.0372 163.197 31.0272L163.111 31.0243C162.171 31.0243 161.4 31.7606 161.357 32.7003L161.312 33.6995C161.307 33.8188 161.278 33.936 161.227 34.0443C161.177 34.1525 161.105 34.2497 161.017 34.3301C160.929 34.4106 160.825 34.4728 160.713 34.5131C160.6 34.5534 160.481 34.5711 160.362 34.565L159.364 34.5171L159.281 34.5157ZM108.302 23.7627L108.26 23.7613L100.054 23.3808C99.4823 23.3549 98.9209 23.2165 98.4022 22.9736C97.8835 22.7307 97.4177 22.388 97.0315 21.965C96.6452 21.5421 96.3461 21.0472 96.1511 20.5087C95.9561 19.9702 95.8691 19.3985 95.8951 18.8263C95.9191 18.2514 96.0572 17.687 96.3013 17.1659C96.5454 16.6449 96.8906 16.1775 97.3169 15.791C97.7397 15.4032 98.2355 15.1033 98.7752 14.9088C99.315 14.7144 99.8881 14.6292 100.461 14.6582L100.85 14.6756L100.869 14.2849C100.895 13.7127 101.033 13.1511 101.276 12.6324C101.519 12.1136 101.861 11.6477 102.284 11.2615C102.707 10.8753 103.202 10.5764 103.741 10.3817C104.28 10.187 104.851 10.1004 105.424 10.127C105.999 10.1513 106.563 10.2895 107.084 10.5335C107.605 10.7776 108.072 11.1227 108.459 11.5488C108.846 11.972 109.146 12.4677 109.341 13.0074C109.535 13.5471 109.621 14.12 109.593 14.693L109.211 22.8986C109.199 23.1316 109.098 23.351 108.929 23.5118C108.76 23.6725 108.535 23.7623 108.302 23.7627ZM100.253 16.4678C99.6173 16.4678 99.0117 16.7016 98.5383 17.1329C98.2748 17.3714 98.0645 17.6626 97.9209 17.9876C97.7772 18.3126 97.7036 18.6642 97.7046 19.0195C97.7046 20.3832 98.7735 21.5015 100.139 21.5654L107.437 21.9038L107.776 14.6045C107.793 14.2696 107.743 13.9349 107.629 13.6195C107.516 13.3042 107.341 13.0145 107.114 12.7673C106.876 12.5038 106.585 12.2935 106.26 12.1499C105.935 12.0063 105.583 11.9326 105.228 11.9337C103.862 11.9337 102.744 13.0026 102.682 14.3663L102.619 15.6646C102.607 15.9047 102.501 16.1302 102.323 16.2921C102.145 16.454 101.911 16.539 101.671 16.5288L100.377 16.4692L100.253 16.4678ZM93.4639 40.139C93.2305 40.1389 93.0062 40.0489 92.8374 39.8877C92.6687 39.7265 92.5685 39.5065 92.5576 39.2734L92.2628 32.9486C92.2394 32.4796 92.3094 32.0106 92.4687 31.5688C92.628 31.127 92.8735 30.7213 93.1909 30.3751C93.5249 30.0061 93.9329 29.7115 94.3883 29.5105C94.8437 29.3096 95.3363 29.2068 95.8341 29.2089C96.7532 29.208 97.6372 29.5617 98.3019 30.1964C98.9667 30.8311 99.3609 31.6979 99.4024 32.616L99.4068 32.709L99.4968 32.7046C100.425 32.6915 101.322 33.0398 101.997 33.6758C102.673 34.3118 103.076 35.1857 103.119 36.1128C103.162 37.0398 102.844 37.9475 102.23 38.6438C101.616 39.3401 100.756 39.7706 99.8308 39.8442L93.506 40.1375L93.4639 40.139ZM95.8341 31.0243L95.7513 31.0272C95.5203 31.0367 95.2934 31.0921 95.084 31.1901C94.8746 31.2881 94.6867 31.4267 94.5313 31.598C94.2147 31.9451 94.0521 32.3953 94.0739 32.8644L94.328 38.2829L99.7466 38.0317C100.213 38.0097 100.651 37.8035 100.965 37.4585C101.279 37.1134 101.443 36.6577 101.421 36.1916C101.399 35.7256 101.193 35.2873 100.848 34.9733C100.503 34.6592 100.047 34.4951 99.581 34.5171L98.5847 34.565C98.4654 34.5713 98.346 34.5538 98.2334 34.5135C98.1209 34.4733 98.0174 34.4111 97.9291 34.3306C97.8407 34.2501 97.7692 34.1528 97.7187 34.0445C97.6683 33.9362 97.6398 33.8189 97.6349 33.6995L97.5899 32.6988C97.569 32.2474 97.3748 31.8214 97.0477 31.5095C96.7207 31.1976 96.286 31.0238 95.8341 31.0243ZM129.474 38.3236C125.971 38.3236 123.12 35.4727 123.12 31.9697C123.12 28.4668 125.971 25.6159 129.474 25.6159C132.977 25.6159 135.828 28.4668 135.828 31.9697C135.828 35.4727 132.977 38.3236 129.474 38.3236ZM129.474 27.4313C128.271 27.4328 127.117 27.9115 126.266 28.7623C125.416 29.6131 124.937 30.7665 124.935 31.9697C124.937 33.173 125.416 34.3264 126.266 35.1772C127.117 36.028 128.271 36.5067 129.474 36.5082C130.677 36.5067 131.831 36.028 132.681 35.1772C133.532 34.3264 134.011 33.173 134.012 31.9697C134.011 30.7665 133.532 29.6131 132.681 28.7623C131.831 27.9115 130.677 27.4328 129.474 27.4313Z" fill="#70b9be"/>
<path d="M253.118 135.508C253.118 136.627 253.158 137.6 253.238 138.427C253.345 139.279 253.491 139.906 253.678 140.306C252.665 139.933 251.839 139.426 251.199 138.786C250.586 138.173 250.146 137.4 249.88 136.467C249.613 135.534 249.48 134.428 249.48 133.149C249.48 131.496 249.613 129.857 249.88 128.231C250.146 126.578 250.453 124.872 250.799 123.113C251.146 121.327 251.452 119.421 251.719 117.395C251.985 115.343 252.119 113.09 252.119 110.638C252.119 110.212 252.105 109.785 252.079 109.359C252.079 108.906 252.079 108.466 252.079 108.039C253.278 108.226 254.211 108.759 254.877 109.639C255.57 110.518 255.917 111.744 255.917 113.317C255.917 114.756 255.77 116.369 255.477 118.155C255.211 119.941 254.891 121.833 254.518 123.833C254.144 125.805 253.811 127.791 253.518 129.79C253.251 131.763 253.118 133.669 253.118 135.508ZM260.635 115.076C260.662 115.21 260.675 115.369 260.675 115.556C260.702 115.743 260.715 115.929 260.715 116.116C260.715 117.289 260.488 118.075 260.035 118.475C259.582 118.875 258.969 119.075 258.196 119.075C257.103 119.075 256.09 119.075 255.157 119.075C254.251 119.048 253.371 119.061 252.518 119.115C251.665 119.168 250.786 119.301 249.88 119.514C249 119.728 248.027 120.061 246.961 120.514C246.934 120.354 246.907 120.167 246.881 119.954C246.881 119.741 246.881 119.541 246.881 119.354C246.881 118.422 247.094 117.728 247.521 117.275C247.974 116.796 248.573 116.489 249.32 116.356C250.066 116.196 250.892 116.116 251.799 116.116C252.438 116.116 253.092 116.142 253.758 116.196C254.424 116.222 255.064 116.236 255.677 116.236C256.61 116.236 257.516 116.169 258.396 116.036C259.302 115.876 260.049 115.556 260.635 115.076Z" fill="#70b9be"/>
<path d="M237.953 142.542C237.153 142.222 236.46 141.809 235.873 141.303C235.314 140.823 234.847 140.237 234.474 139.544C234.128 138.877 233.861 138.104 233.674 137.225C233.514 136.345 233.434 135.372 233.434 134.306C233.434 133.32 233.474 132.013 233.554 130.387C233.634 128.735 233.768 126.909 233.954 124.91C234.168 122.911 234.461 120.858 234.834 118.752C235.234 116.62 235.727 114.567 236.313 112.595C236.926 110.596 237.673 108.81 238.552 107.237C239.432 105.638 240.472 104.372 241.671 103.439C242.871 102.506 244.243 102.039 245.789 102.039C246.722 102.039 247.495 102.252 248.108 102.679C248.748 103.079 249.068 103.692 249.068 104.518C249.068 104.945 248.975 105.385 248.788 105.838C248.601 106.264 248.268 106.637 247.789 106.957C247.442 106.584 247.029 106.291 246.549 106.078C246.069 105.864 245.456 105.758 244.71 105.758C243.777 105.758 242.951 106.171 242.231 106.997C241.511 107.823 240.885 108.943 240.352 110.356C239.818 111.769 239.365 113.368 238.992 115.154C238.646 116.913 238.352 118.766 238.113 120.711C237.899 122.631 237.726 124.523 237.593 126.389C237.486 128.255 237.406 129.974 237.353 131.547C237.326 133.12 237.313 134.439 237.313 135.505C237.313 136.278 237.313 136.931 237.313 137.464C237.34 137.971 237.366 138.451 237.393 138.904C237.446 139.357 237.513 139.863 237.593 140.423C237.673 140.983 237.793 141.689 237.953 142.542ZM230.796 120.512C230.769 120.352 230.742 120.165 230.716 119.952C230.716 119.739 230.716 119.539 230.716 119.352C230.716 118.419 230.929 117.726 231.355 117.273C231.809 116.793 232.408 116.487 233.155 116.353C233.901 116.193 234.727 116.113 235.634 116.113C236.273 116.113 236.926 116.14 237.593 116.193C238.259 116.22 238.899 116.233 239.512 116.233C240.445 116.233 241.351 116.167 242.231 116.033C243.137 115.873 243.883 115.554 244.47 115.074C244.497 115.207 244.51 115.367 244.51 115.554C244.537 115.74 244.55 115.927 244.55 116.113C244.55 117.286 244.323 118.073 243.87 118.472C243.417 118.872 242.804 119.072 242.031 119.072C240.938 119.072 239.925 119.072 238.992 119.072C238.086 119.045 237.206 119.059 236.353 119.112C235.5 119.165 234.621 119.299 233.714 119.512C232.835 119.725 231.862 120.058 230.796 120.512Z" fill="#70b9be"/>
<path d="M220.007 131.228C219.501 132.614 218.768 133.867 217.808 134.986C216.875 136.079 215.822 136.945 214.649 137.585C213.503 138.198 212.33 138.505 211.131 138.505C209.345 138.505 207.945 137.812 206.933 136.426C205.946 135.04 205.453 133.094 205.453 130.588C205.453 128.589 205.733 126.71 206.293 124.95C206.879 123.165 207.666 121.605 208.652 120.272C209.665 118.94 210.838 117.9 212.17 117.154C213.503 116.381 214.929 115.994 216.449 115.994C216.902 115.994 217.382 116.047 217.888 116.154C218.394 116.234 218.968 116.367 219.607 116.554C218.168 116.9 216.835 117.5 215.609 118.353C214.409 119.206 213.37 120.232 212.49 121.432C211.637 122.631 210.971 123.964 210.491 125.43C210.011 126.896 209.771 128.442 209.771 130.068C209.771 131.694 210.051 132.947 210.611 133.827C211.171 134.68 211.97 135.106 213.01 135.106C214.103 135.106 215.142 134.68 216.129 133.827C217.115 132.947 218.008 131.774 218.808 130.308C219.607 128.815 220.234 127.136 220.687 125.27C221.14 123.378 221.367 121.419 221.367 119.393C221.367 118.7 221.34 117.993 221.287 117.274C221.233 116.527 221.153 115.874 221.047 115.314C221.313 115.288 221.553 115.274 221.766 115.274C221.98 115.248 222.18 115.234 222.366 115.234C223.459 115.234 224.285 115.514 224.845 116.074C225.431 116.634 225.725 117.447 225.725 118.513C225.725 119.206 225.631 120.099 225.445 121.192C225.258 122.285 225.032 123.511 224.765 124.87C224.525 126.23 224.299 127.656 224.085 129.149C223.899 130.641 223.806 132.121 223.806 133.587C223.806 134.733 223.899 135.719 224.085 136.546C224.272 137.372 224.592 138.305 225.045 139.344C223.339 138.998 222.113 138.252 221.367 137.105C220.62 135.959 220.247 134.28 220.247 132.067C220.247 131.854 220.247 131.708 220.247 131.628C220.247 131.521 220.26 131.414 220.287 131.308L220.007 131.228Z" fill="#70b9be"/>
<path d="M193.664 123.232C194.357 121.179 195.09 119.553 195.863 118.354C196.663 117.128 197.462 116.248 198.262 115.715C199.062 115.182 199.781 114.915 200.421 114.915C201.194 114.915 201.821 115.129 202.3 115.555C202.807 115.982 203.18 116.541 203.42 117.234C203.687 117.901 203.82 118.62 203.82 119.393C203.82 120.246 203.673 121.059 203.38 121.832C203.113 122.605 202.674 123.232 202.061 123.712C201.474 124.191 200.701 124.431 199.741 124.431C199.582 124.431 199.422 124.431 199.262 124.431C199.102 124.405 198.929 124.378 198.742 124.351C199.062 123.898 199.368 123.285 199.662 122.512C199.955 121.713 200.101 120.993 200.101 120.353C200.101 119.927 200.008 119.58 199.821 119.314C199.662 119.047 199.368 118.914 198.942 118.914C198.355 118.914 197.702 119.274 196.983 119.993C196.29 120.686 195.61 121.713 194.944 123.072C194.304 124.405 193.771 126.044 193.344 127.99C192.944 129.936 192.744 132.148 192.744 134.627C192.744 135.16 192.771 135.707 192.824 136.266C192.878 136.826 192.918 137.413 192.944 138.026C192.678 138.052 192.451 138.066 192.265 138.066C192.078 138.092 191.905 138.106 191.745 138.106C190.599 138.106 189.719 137.839 189.106 137.306C188.52 136.773 188.226 135.893 188.226 134.667C188.226 134.081 188.306 133.254 188.466 132.188C188.653 131.095 188.853 129.869 189.066 128.51C189.279 127.15 189.466 125.751 189.626 124.311C189.812 122.845 189.906 121.446 189.906 120.113C189.906 119.074 189.852 118.047 189.746 117.034C189.639 116.022 189.466 115.049 189.226 114.116C190.879 114.782 191.998 115.702 192.584 116.875C193.171 118.047 193.464 119.407 193.464 120.953C193.464 121.219 193.451 121.553 193.424 121.952C193.424 122.326 193.397 122.725 193.344 123.152L193.664 123.232Z" fill="#70b9be"/>
<path d="M180.168 130.228C180.541 130.228 180.901 130.348 181.248 130.588C181.621 130.828 181.808 131.068 181.808 131.308C180.608 133.707 178.995 135.599 176.97 136.986C174.97 138.345 172.798 139.025 170.452 139.025C168.293 139.025 166.414 138.438 164.815 137.265C163.215 136.066 161.976 134.387 161.096 132.228C160.217 130.068 159.777 127.509 159.777 124.551C159.777 121.779 160.137 119.246 160.856 116.954C161.576 114.662 162.589 112.689 163.895 111.036C165.228 109.357 166.8 108.064 168.613 107.158C170.426 106.252 172.425 105.799 174.611 105.799C177.143 105.799 179.142 106.452 180.608 107.758C182.101 109.064 182.847 110.823 182.847 113.036C182.847 114.182 182.634 115.195 182.207 116.074C181.781 116.954 181.181 117.647 180.408 118.153C179.662 118.66 178.795 118.913 177.809 118.913C177.596 118.913 177.343 118.886 177.05 118.833C176.756 118.78 176.423 118.7 176.05 118.593C176.503 118.113 176.903 117.527 177.249 116.834C177.596 116.141 177.863 115.408 178.049 114.635C178.262 113.862 178.369 113.129 178.369 112.436C178.369 111.05 178.009 109.983 177.289 109.237C176.596 108.491 175.623 108.118 174.371 108.118C172.958 108.118 171.625 108.557 170.372 109.437C169.146 110.29 168.053 111.49 167.094 113.036C166.161 114.555 165.428 116.327 164.895 118.353C164.361 120.352 164.095 122.498 164.095 124.791C164.095 127.136 164.401 129.175 165.015 130.908C165.628 132.641 166.494 133.973 167.613 134.906C168.733 135.839 170.052 136.306 171.572 136.306C173.224 136.306 174.824 135.759 176.37 134.666C177.916 133.574 179.182 132.094 180.168 130.228Z" fill="#70b9be"/>
<path d="M140.84 147.141C140.84 146.235 141.08 145.115 141.56 143.782C142.04 142.45 142.666 140.97 143.439 139.344C144.239 137.718 145.105 135.999 146.038 134.186C146.998 132.374 147.944 130.548 148.877 128.709C149.837 126.843 150.703 125.03 151.476 123.271C152.276 121.485 152.915 119.819 153.395 118.273C153.875 116.7 154.115 115.301 154.115 114.075C154.995 114.661 155.621 115.248 155.994 115.834C156.394 116.394 156.594 117.02 156.594 117.713C156.594 118.593 156.314 119.659 155.754 120.912C155.194 122.138 154.461 123.524 153.555 125.07C152.675 126.616 151.743 128.282 150.756 130.068C149.77 131.854 148.824 133.733 147.917 135.706C147.038 137.678 146.318 139.718 145.758 141.823C145.199 143.929 144.919 146.075 144.919 148.261C144.919 148.794 144.932 149.353 144.959 149.94C145.012 150.526 145.092 151.113 145.199 151.699C144.266 151.566 143.506 151.339 142.92 151.019C142.36 150.7 141.92 150.326 141.6 149.9C141.307 149.473 141.107 149.007 141 148.501C140.894 148.021 140.84 147.568 140.84 147.141ZM143.879 139.904C143.693 138.358 143.466 136.679 143.199 134.866C142.933 133.054 142.626 131.214 142.28 129.349C141.96 127.483 141.587 125.683 141.16 123.951C140.76 122.191 140.321 120.592 139.841 119.153C139.388 117.713 138.881 116.541 138.321 115.634C138.695 115.341 139.148 115.101 139.681 114.915C140.214 114.701 140.734 114.595 141.24 114.595C142.147 114.595 142.866 115.021 143.399 115.874C143.932 116.7 144.346 117.82 144.639 119.233C144.959 120.619 145.199 122.178 145.359 123.911C145.518 125.643 145.678 127.429 145.838 129.269C145.998 131.081 146.198 132.8 146.438 134.426L143.879 139.904Z" fill="#70b9be"/>
<path d="M127.089 123.232C127.782 121.179 128.515 119.553 129.288 118.354C130.088 117.128 130.888 116.248 131.687 115.715C132.487 115.182 133.207 114.915 133.846 114.915C134.619 114.915 135.246 115.129 135.726 115.555C136.232 115.982 136.605 116.541 136.845 117.234C137.112 117.901 137.245 118.62 137.245 119.393C137.245 120.246 137.098 121.059 136.805 121.832C136.539 122.605 136.099 123.232 135.486 123.712C134.899 124.191 134.126 124.431 133.167 124.431C133.007 124.431 132.847 124.431 132.687 124.431C132.527 124.405 132.354 124.378 132.167 124.351C132.487 123.898 132.794 123.285 133.087 122.512C133.38 121.713 133.527 120.993 133.527 120.353C133.527 119.927 133.433 119.58 133.247 119.314C133.087 119.047 132.793 118.914 132.367 118.914C131.781 118.914 131.128 119.274 130.408 119.993C129.715 120.686 129.035 121.713 128.369 123.072C127.729 124.405 127.196 126.044 126.769 127.99C126.37 129.936 126.17 132.148 126.17 134.627C126.17 135.16 126.196 135.707 126.25 136.266C126.303 136.826 126.343 137.413 126.37 138.026C126.103 138.052 125.876 138.066 125.69 138.066C125.503 138.092 125.33 138.106 125.17 138.106C124.024 138.106 123.144 137.839 122.531 137.306C121.945 136.773 121.651 135.893 121.651 134.667C121.651 134.081 121.731 133.254 121.891 132.188C122.078 131.095 122.278 129.869 122.491 128.51C122.704 127.15 122.891 125.751 123.051 124.311C123.237 122.845 123.331 121.446 123.331 120.113C123.331 119.074 123.277 118.047 123.171 117.034C123.064 116.022 122.891 115.049 122.651 114.116C124.304 114.782 125.423 115.702 126.01 116.875C126.596 118.047 126.889 119.407 126.889 120.953C126.889 121.219 126.876 121.553 126.849 121.952C126.849 122.326 126.823 122.725 126.769 123.152L127.089 123.232Z" fill="#70b9be"/>
<path d="M106.498 138.624C105.086 138.624 103.82 138.211 102.7 137.385C101.607 136.558 100.741 135.412 100.101 133.946C99.488 132.453 99.1815 130.761 99.1815 128.868C99.1815 126.896 99.4613 125.07 100.021 123.391C100.608 121.685 101.421 120.205 102.46 118.952C103.5 117.7 104.712 116.727 106.099 116.034C107.511 115.314 109.031 114.954 110.657 114.954C112.629 114.954 114.122 115.447 115.135 116.433C116.148 117.42 116.654 118.859 116.654 120.752C116.654 122.164 116.268 123.444 115.495 124.59C114.722 125.71 113.655 126.589 112.296 127.229C110.963 127.869 109.431 128.189 107.698 128.189C106.845 128.189 106.045 128.149 105.299 128.069C104.553 127.962 103.833 127.829 103.14 127.669L103.26 126.269H104.739C106.285 126.269 107.631 126.016 108.777 125.51C109.924 124.977 110.817 124.23 111.456 123.271C112.096 122.311 112.416 121.205 112.416 119.952C112.416 119.019 112.189 118.299 111.736 117.793C111.31 117.286 110.697 117.033 109.897 117.033C108.884 117.033 107.978 117.42 107.178 118.193C106.378 118.939 105.699 119.925 105.139 121.151C104.579 122.351 104.153 123.644 103.86 125.03C103.566 126.416 103.42 127.735 103.42 128.988C103.42 131.334 103.766 133.106 104.459 134.306C105.179 135.479 106.232 136.065 107.618 136.065C110.23 136.065 112.376 134.759 114.055 132.147C115.042 132.307 115.535 132.667 115.535 133.226C114.388 135.092 113.082 136.465 111.616 137.345C110.177 138.198 108.471 138.624 106.498 138.624Z" fill="#70b9be"/>
<path d="M81.8595 123.631C82.5259 121.365 83.3122 119.606 84.2185 118.353C85.1248 117.073 86.0578 116.18 87.0174 115.674C88.0036 115.141 88.8966 114.874 89.6962 114.874C91.0557 114.874 92.1619 115.314 93.0149 116.194C93.8678 117.073 94.2943 118.366 94.2943 120.072C94.2943 121.138 94.0811 122.151 93.6546 123.111C93.2281 124.044 92.6283 124.87 91.8553 125.59C91.0823 126.309 90.1494 126.883 89.0565 127.309L89.5363 128.788C90.0161 130.334 90.6159 131.84 91.3356 133.306C92.0819 134.773 92.8416 136.132 93.6146 137.385C94.3876 138.611 95.1206 139.664 95.8137 140.543C96.5067 141.45 97.0532 142.089 97.453 142.463C97.1065 142.569 96.76 142.649 96.4134 142.703C96.0936 142.783 95.787 142.823 95.4938 142.823C94.2144 142.823 93.0815 142.396 92.0952 141.543C91.109 140.717 90.2294 139.597 89.4563 138.184C88.6833 136.772 87.977 135.212 87.3372 133.506C86.6975 131.774 86.0844 130.028 85.498 128.269C85.2314 128.295 84.9782 128.309 84.7383 128.309C84.4984 128.309 84.2452 128.309 83.9786 128.309C83.8187 128.175 83.7387 127.749 83.7387 127.029C85.0182 127.002 86.0844 126.776 86.9374 126.349C87.817 125.896 88.5234 125.323 89.0565 124.63C89.5896 123.937 89.9761 123.204 90.216 122.431C90.4559 121.658 90.5759 120.952 90.5759 120.312C90.5759 119.619 90.4159 119.032 90.0961 118.553C89.7762 118.073 89.2831 117.833 88.6167 117.833C87.7904 117.833 86.9374 118.273 86.0578 119.152C85.1781 120.005 84.3651 121.205 83.6188 122.751C82.8724 124.27 82.2727 126.016 81.8195 127.989C81.3664 129.961 81.1398 132.054 81.1398 134.266C81.1398 134.879 81.1531 135.492 81.1798 136.105C81.2065 136.692 81.2731 137.331 81.3797 138.025C81.1398 138.051 80.9266 138.065 80.74 138.065C80.5801 138.091 80.4334 138.104 80.3002 138.104C79.074 138.104 78.1544 137.851 77.5413 137.345C76.9282 136.812 76.6217 135.932 76.6217 134.706C76.6217 133.826 76.715 132.64 76.9016 131.147C77.0882 129.655 77.3147 127.935 77.5813 125.99C77.8745 124.044 78.1677 121.951 78.4609 119.712C78.7541 117.473 78.994 115.167 79.1806 112.795C79.3672 110.396 79.4605 108.024 79.4605 105.678C79.4605 104.585 79.4205 103.639 79.3406 102.839C79.2606 102.013 79.1406 101.4 78.9807 101C80.0469 101.373 80.8733 101.866 81.4597 102.479C82.0728 103.092 82.5126 103.852 82.7791 104.758C83.0457 105.665 83.179 106.744 83.179 107.997C83.179 109.037 83.0857 110.356 82.8991 111.955C82.7391 113.555 82.5259 115.341 82.2593 117.313C82.0195 119.286 81.7795 121.365 81.5396 123.551L81.8595 123.631Z" fill="#70b9be"/>
<path d="M59.6624 138.623C58.7028 138.623 57.7432 138.423 56.7836 138.023C55.8241 137.597 54.9444 136.957 54.1448 136.104C53.3717 135.251 52.7453 134.171 52.2655 132.865C51.7857 131.533 51.5458 129.96 51.5458 128.147C51.5458 125.935 51.8657 123.909 52.5054 122.07C53.1718 120.231 54.1048 118.658 55.3043 117.352C56.5304 116.019 57.9565 115.033 59.5825 114.393C59.8757 114.393 60.0756 114.473 60.1822 114.633C60.3155 114.793 60.3821 114.98 60.3821 115.193C59.5558 115.753 58.7162 116.526 57.8632 117.512C57.0369 118.498 56.3838 119.857 55.904 121.59L56.1839 121.67C56.9569 119.991 57.8499 118.671 58.8628 117.712C59.9023 116.752 60.9686 116.072 62.0614 115.673C63.1543 115.273 64.1806 115.073 65.1402 115.073C66.313 115.073 67.3392 115.419 68.2189 116.112C69.0985 116.805 69.7782 117.805 70.258 119.111C70.7645 120.391 71.0177 121.937 71.0177 123.749C71.0177 125.455 70.8045 127.188 70.378 128.947C69.9515 130.68 69.2851 132.279 68.3788 133.745C67.4725 135.211 66.2997 136.397 64.8603 137.304C63.4209 138.183 61.6883 138.623 59.6624 138.623ZM60.0623 136.144C61.1818 136.144 62.1681 135.797 63.021 135.104C63.9007 134.385 64.6337 133.452 65.2201 132.306C65.8332 131.133 66.2997 129.853 66.6195 128.467C66.9394 127.081 67.0993 125.722 67.0993 124.389C67.0993 122.017 66.7528 120.297 66.0598 119.231C65.3934 118.138 64.5271 117.592 63.4609 117.592C62.4213 117.592 61.435 117.938 60.5021 118.631C59.5958 119.324 58.7695 120.231 58.0231 121.35C57.3034 122.47 56.7303 123.696 56.3038 125.029C55.904 126.361 55.7041 127.654 55.7041 128.907C55.7041 130.16 55.8507 131.346 56.1439 132.466C56.4371 133.558 56.9036 134.451 57.5433 135.144C58.1831 135.811 59.0227 136.144 60.0623 136.144Z" fill="#70b9be"/>
<path d="M34.9844 138.623C34.0248 138.623 33.0652 138.423 32.1056 138.023C31.146 137.597 30.2664 136.957 29.4667 136.104C28.6937 135.251 28.0673 134.171 27.5875 132.865C27.1077 131.533 26.8678 129.96 26.8678 128.147C26.8678 125.935 27.1877 123.909 27.8274 122.07C28.4938 120.231 29.4267 118.658 30.6262 117.352C31.8524 116.019 33.2785 115.033 34.9044 114.393C35.1976 114.393 35.3976 114.473 35.5042 114.633C35.6375 114.793 35.7041 114.98 35.7041 115.193C34.8778 115.753 34.0381 116.526 33.1852 117.512C32.3588 118.498 31.7058 119.857 31.226 121.59L31.5059 121.67C32.2789 119.991 33.1718 118.671 34.1847 117.712C35.2243 116.752 36.2905 116.072 37.3834 115.673C38.4763 115.273 39.5025 115.073 40.4621 115.073C41.635 115.073 42.6612 115.419 43.5408 116.112C44.4205 116.805 45.1002 117.805 45.58 119.111C46.0864 120.391 46.3397 121.937 46.3397 123.749C46.3397 125.455 46.1264 127.188 45.6999 128.947C45.2734 130.68 44.6071 132.279 43.7008 133.745C42.7945 135.211 41.6216 136.397 40.1822 137.304C38.7428 138.183 37.0102 138.623 34.9844 138.623ZM35.3842 136.144C36.5038 136.144 37.49 135.797 38.343 135.104C39.2226 134.385 39.9557 133.452 40.5421 132.306C41.1552 131.133 41.6216 129.853 41.9415 128.467C42.2614 127.081 42.4213 125.722 42.4213 124.389C42.4213 122.017 42.0748 120.297 41.3817 119.231C40.7153 118.138 39.849 117.592 38.7828 117.592C37.7433 117.592 36.757 117.938 35.8241 118.631C34.9178 119.324 34.0914 120.231 33.3451 121.35C32.6254 122.47 32.0523 123.696 31.6258 125.029C31.226 126.361 31.0261 127.654 31.0261 128.907C31.0261 130.16 31.1727 131.346 31.4659 132.466C31.7591 133.558 32.2256 134.451 32.8653 135.144C33.505 135.811 34.3447 136.144 35.3842 136.144Z" fill="#70b9be"/>
<path d="M20.3915 130.228C20.7647 130.228 21.1245 130.348 21.471 130.588C21.8442 130.828 22.0308 131.068 22.0308 131.308C20.8313 133.707 19.2186 135.599 17.1928 136.986C15.1936 138.345 13.0212 139.025 10.6755 139.025C8.51644 139.025 6.63723 138.438 5.03789 137.265C3.43856 136.066 2.19908 134.387 1.31945 132.228C0.439816 130.068 0 127.509 0 124.551C0 121.779 0.35985 119.246 1.07955 116.954C1.79925 114.662 2.81216 112.689 4.11828 111.036C5.45106 109.357 7.02373 108.064 8.83631 107.158C10.6489 106.252 12.648 105.799 14.8338 105.799C17.3661 105.799 19.3652 106.452 20.8313 107.758C22.324 109.064 23.0704 110.823 23.0704 113.036C23.0704 114.182 22.8571 115.195 22.4306 116.074C22.0041 116.954 21.4044 117.647 20.6314 118.153C19.885 118.66 19.0187 118.913 18.0325 118.913C17.8192 118.913 17.566 118.886 17.2728 118.833C16.9796 118.78 16.6464 118.7 16.2732 118.593C16.7263 118.113 17.1262 117.527 17.4727 116.834C17.8192 116.141 18.0858 115.408 18.2724 114.635C18.4856 113.862 18.5922 113.129 18.5922 112.436C18.5922 111.05 18.2324 109.983 17.5127 109.237C16.8196 108.491 15.8467 108.118 14.5939 108.118C13.1812 108.118 11.8484 108.557 10.5956 109.437C9.36942 110.29 8.27654 111.49 7.31694 113.036C6.384 114.555 5.65097 116.327 5.11786 118.353C4.58475 120.352 4.3182 122.498 4.3182 124.791C4.3182 127.136 4.62473 129.175 5.23781 130.908C5.85089 132.641 6.71719 133.973 7.83672 134.906C8.95626 135.839 10.2757 136.306 11.7951 136.306C13.4477 136.306 15.047 135.759 16.5931 134.666C18.1391 133.574 19.4052 132.094 20.3915 130.228Z" fill="#70b9be"/>
</svg>