<svg width="24" height="24" viewBox="0 0 24 24" fill="none" xmlns="http://www.w3.org/2000/svg">
<path d="M20.1459 9.57812C19.0717 11.0391 18.4272 12.5859 18.2553 14.1758C17.9545 16.668 16.5795 18.8164 14.4311 20.1055C13.185 20.8359 11.767 21.2227 10.349 21.2227C7.42716 21.2227 4.72013 19.6328 3.30216 17.0547C1.28263 13.4023 2.52872 8.63281 6.05216 6.44141C6.9545 5.88281 7.89981 5.49609 8.93106 5.32422C10.2631 5.10937 11.5951 4.50781 12.9701 3.51953C13.099 3.43359 13.2279 3.34766 13.3568 3.26172C14.3881 2.70312 15.5483 2.35938 16.7084 2.35938C18.4272 2.35938 19.9311 3.13281 20.6615 4.42187C21.5639 5.92578 21.349 7.90234 20.1459 9.57812Z" stroke="#0A2533" stroke-width="1.5"/>
<path d="M11.1655 10.3945C10.9506 10.3515 10.6928 10.4804 10.6498 10.6952C10.6069 10.9101 10.7358 11.1679 10.9506 11.2109C11.9819 11.4687 12.6264 12.5429 12.3686 13.5742C12.3256 13.789 12.4545 14.0468 12.6694 14.0898C12.7123 14.0898 12.7553 14.0898 12.7553 14.0898C12.9272 14.0898 13.142 13.9609 13.185 13.746C13.6147 12.3281 12.6694 10.7812 11.1655 10.3945Z" fill="#0A2533"/>
<circle cx="10.4995" cy="13.1231" r="4.7837" stroke="#0A2533" stroke-width="1.5"/>
</svg>
