<svg xmlns="http://www.w3.org/2000/svg" width="25" height="24" fill="none" viewBox="0 0 25 24">
  <path fill="#BF1B2C" d="M2.125 10.503v3.769c0 1.884.942 2.826 2.826 2.826H6.3c.348 0 .697.104.998.283l2.751 1.724c2.374 1.488 4.324.405 4.324-2.393V8.063c0-2.807-1.95-3.881-4.324-2.393l-2.75 1.724c-.302.18-.65.283-1 .283H4.951c-1.884 0-2.826.942-2.826 2.826Z"/>
  <path stroke="#BF1B2C" stroke-linecap="round" d="M16.93 2.847 19.03 1m-1.669 5.298 2.58-1.08m-2.574 9.86 2.623.97m-2.89 3.593 2.011 1.943M17.862 10.47h2.584"/>
</svg>
