<svg xmlns="http://www.w3.org/2000/svg" width="24" height="24" fill="none" viewBox="0 0 24 24">
  <g clip-path="url(#a)">
    <path fill="url(#b)" d="M.512 11.856c0 2.017.53 3.986 1.54 5.721l-1.636 5.93 6.115-1.591a11.603 11.603 0 0 0 5.513 1.392h.005c6.357 0 11.532-5.133 11.535-11.443a11.327 11.327 0 0 0-3.376-8.095 11.509 11.509 0 0 0-8.16-3.356C5.69.414.515 5.547.512 11.856"/>
    <path fill="url(#c)" d="M.1 11.853c0 2.089.55 4.128 1.595 5.926L0 23.92l6.335-1.648a12.018 12.018 0 0 0 5.71 1.442h.005c6.586 0 11.947-5.317 11.95-11.853a11.736 11.736 0 0 0-3.497-8.386A11.922 11.922 0 0 0 12.05 0C5.463 0 .103 5.317.1 11.853Zm3.773 5.616-.237-.373a9.77 9.77 0 0 1-1.518-5.243c.002-5.432 4.457-9.851 9.936-9.851a9.907 9.907 0 0 1 7.022 2.89 9.754 9.754 0 0 1 2.906 6.97c-.002 5.432-4.457 9.851-9.932 9.851h-.004a9.98 9.98 0 0 1-5.055-1.373l-.363-.213-3.759.978 1.004-3.636Z"/>
    <path fill="#fff" d="M9.063 6.898c-.223-.494-.459-.504-.671-.512-.175-.008-.374-.007-.573-.007-.199 0-.522.074-.796.37-.274.297-1.045 1.014-1.045 2.471 0 1.458 1.07 2.867 1.22 3.064.148.198 2.065 3.285 5.1 4.472 2.522.987 3.035.791 3.583.741.547-.049 1.766-.716 2.015-1.408.249-.691.249-1.284.174-1.408-.074-.124-.274-.198-.572-.346-.299-.148-1.767-.865-2.04-.964-.274-.099-.473-.148-.672.149-.2.296-.771.963-.945 1.16-.175.199-.349.223-.647.075-.3-.149-1.26-.46-2.402-1.47-.887-.785-1.486-1.755-1.66-2.052-.175-.296-.02-.457.13-.604.135-.133.3-.346.448-.52.15-.172.2-.296.299-.493.1-.198.05-.37-.025-.52-.075-.147-.655-1.613-.92-2.198Z"/>
  </g>
  <defs>
    <linearGradient id="b" x1="1158.85" x2="1158.85" y1="2309.67" y2=".414" gradientUnits="userSpaceOnUse">
      <stop stop-color="#1FAF38"/>
      <stop offset="1" stop-color="#60D669"/>
    </linearGradient>
    <linearGradient id="c" x1="1200" x2="1200" y1="2392.07" y2="0" gradientUnits="userSpaceOnUse">
      <stop stop-color="#F9F9F9"/>
      <stop offset="1" stop-color="#fff"/>
    </linearGradient>
    <clipPath id="a">
      <path fill="#fff" d="M0 0h24v24H0z"/>
    </clipPath>
  </defs>
</svg>
