<svg xmlns="http://www.w3.org/2000/svg" version="1.1" xmlns:xlink="http://www.w3.org/1999/xlink" width="512" height="512" x="0" y="0" viewBox="0 0 1.101 1.101" style="enable-background:new 0 0 512 512" xml:space="preserve" fill-rule="evenodd" class=""><g transform="matrix(1.5000000000000007,0,0,1.5000000000000007,-0.274999983608723,-0.27500000596046437)"><clipPath id="a"><path d="M.55.39a.207.207 0 0 1 0 .322.207.207 0 0 1 0-.323z" fill="#000000" opacity="1" data-original="#000000" class=""></path></clipPath><circle cx=".419" cy=".55" r=".208" fill="#ff6041" opacity="1" data-original="#ff6041" class=""></circle><circle cx=".681" cy=".55" r=".208" fill="#ffd941" opacity="1" data-original="#ffd941" class=""></circle><path fill="#ffd941" d="M.55.39a.207.207 0 0 1 0 .322.207.207 0 0 1 0-.323z" opacity="1" data-original="#ffd941" class=""></path><g fill="#ff6041" clip-path="url(#a)"><path d="M.435.43h.248v.027H.435zM.435.483h.248V.51H.435zM.435.537h.248v.027H.435zM.435.59h.248v.027H.435zM.435.643h.248V.67H.435z" fill="#ff6041" opacity="1" data-original="#ff6041" class=""></path></g></g></svg>